{
	"asset":{
		"version":"2.0",
		"generator":"Created using the official Cinema 4D glTF Exporter 1.000x290161"
	},
	"scenes":[{
		"nodes":[0]
	}],
	"nodes":[{
		"name":"Symétrie.1",
		"translation":[0.0,
		0.0,
		252.40420532226563],
		"rotation":[0.0,
		0.0,
		0.0,
		-1.0],
		"scale":[1.0,
		1.0,
		1.0],
		"children":[1,
		6]
	},
	{
		"name":"AilesGD",
		"translation":[0.0,
		-7.779515266418457,
		-47.176631927490237],
		"rotation":[-0.009881103411316872,
		-0.014087607152760029,
		0.0001392217236571014,
		-0.9998519420623779],
		"scale":[1.0,
		1.0,
		1.0],
		"children":[2]
	},
	{
		"name":"2Ailes",
		"children":[3]
	},
	{
		"name":"Aile",
		"translation":[0.2143501490354538,
		0.11865594983100891,
		0.0],
		"rotation":[0.0,
		0.0,
		0.13052618503570558,
		-0.9914448857307434],
		"scale":[1.0,
		1.0,
		1.0],
		"mesh":0,
		"children":[4,
		5]
	},
	{
		"name":"Pic",
		"translation":[-274.70745849609377,
		22.845205307006837,
		-36.508358001708987],
		"rotation":[0.0,
		0.0,
		0.0,
		-1.0],
		"scale":[1.600000023841858,
		1.600000023841858,
		1.350000023841858],
		"mesh":1
	},
	{
		"name":"reacteur",
		"translation":[-102.02877807617188,
		54.12696838378906,
		114.92891693115235],
		"rotation":[0.0,
		0.0,
		0.0,
		-1.0],
		"scale":[1.0,
		1.0,
		1.0],
		"mesh":2
	},
	{
		"name":"Cube",
		"translation":[1.1113978624343873,
		0.7761754989624023,
		-211.6523895263672],
		"rotation":[0.0,
		0.0,
		0.0,
		-1.0],
		"scale":[1.0,
		1.0,
		1.0],
		"mesh":3
	}],
	"meshes":[{
		"primitives":[{
			"attributes":{
				"POSITION":1,
				"NORMAL":2,
				"TEXCOORD_0":3
			},
			"indices":0,
			"material":0
		}]
	},
	{
		"primitives":[{
			"attributes":{
				"POSITION":5,
				"NORMAL":6,
				"TEXCOORD_0":7
			},
			"indices":4,
			"material":0
		}]
	},
	{
		"primitives":[{
			"attributes":{
				"POSITION":9,
				"NORMAL":10,
				"TEXCOORD_0":11
			},
			"indices":8,
			"material":1
		}]
	},
	{
		"primitives":[{
			"attributes":{
				"POSITION":13,
				"NORMAL":14,
				"TEXCOORD_0":15
			},
			"indices":12,
			"material":2
		}]
	}],
	"accessors":[{
		"bufferView":0,
		"type":"SCALAR",
		"componentType":5123,
		"count":6288,
		"byteOffset":0,
		"min":[0],
		"max":[2963]
	},
	{
		"bufferView":1,
		"type":"VEC3",
		"componentType":5126,
		"count":2964,
		"byteOffset":0,
		"min":[-364.2726135253906,
		-185.11582946777345,
		-67.98821258544922],
		"max":[363.919921875,
		184.77565002441407,
		147.2520294189453]
	},
	{
		"bufferView":1,
		"type":"VEC3",
		"componentType":5126,
		"count":2964,
		"byteOffset":12,
		"min":[-1.0,
		-1.0,
		-1.0],
		"max":[1.0,
		1.0,
		1.0]
	},
	{
		"bufferView":1,
		"type":"VEC2",
		"componentType":5126,
		"count":2964,
		"byteOffset":24,
		"min":[0.0,
		0.0],
		"max":[1.0,
		1.0]
	},
	{
		"bufferView":2,
		"type":"SCALAR",
		"componentType":5123,
		"count":13896,
		"byteOffset":0,
		"min":[0],
		"max":[5183]
	},
	{
		"bufferView":3,
		"type":"VEC3",
		"componentType":5126,
		"count":5184,
		"byteOffset":0,
		"min":[-14.371025085449219,
		-127.10503387451172,
		-177.4171600341797],
		"max":[357.534912109375,
		98.3359146118164,
		77.37115478515625]
	},
	{
		"bufferView":3,
		"type":"VEC3",
		"componentType":5126,
		"count":5184,
		"byteOffset":12,
		"min":[-1.0,
		-0.9994509816169739,
		-1.0],
		"max":[1.0,
		0.9994509816169739,
		1.0]
	},
	{
		"bufferView":3,
		"type":"VEC2",
		"componentType":5126,
		"count":5184,
		"byteOffset":24,
		"min":[0.0,
		0.0],
		"max":[1.0,
		1.0]
	},
	{
		"bufferView":4,
		"type":"SCALAR",
		"componentType":5123,
		"count":5520,
		"byteOffset":0,
		"min":[0],
		"max":[2387]
	},
	{
		"bufferView":5,
		"type":"VEC3",
		"componentType":5126,
		"count":2388,
		"byteOffset":0,
		"min":[-9.462451934814454,
		-158.79493713378907,
		-120.0166244506836],
		"max":[213.16734313964845,
		50.20081329345703,
		134.72792053222657]
	},
	{
		"bufferView":5,
		"type":"VEC3",
		"componentType":5126,
		"count":2388,
		"byteOffset":12,
		"min":[-0.9983211755752564,
		-0.9995554685592651,
		-1.0],
		"max":[0.9983211755752564,
		0.9995554685592651,
		1.0]
	},
	{
		"bufferView":5,
		"type":"VEC2",
		"componentType":5126,
		"count":2388,
		"byteOffset":24,
		"min":[0.0,
		0.0],
		"max":[1.0,
		1.0]
	},
	{
		"bufferView":6,
		"type":"SCALAR",
		"componentType":5123,
		"count":1488,
		"byteOffset":0,
		"min":[0],
		"max":[493]
	},
	{
		"bufferView":7,
		"type":"VEC3",
		"componentType":5126,
		"count":494,
		"byteOffset":0,
		"min":[-417.1840515136719,
		-45.276023864746097,
		-207.25289916992188],
		"max":[414.9612731933594,
		49.46030807495117,
		212.41680908203126]
	},
	{
		"bufferView":7,
		"type":"VEC3",
		"componentType":5126,
		"count":494,
		"byteOffset":12,
		"min":[-1.0,
		-0.9999659061431885,
		-1.0],
		"max":[1.0,
		0.9999940395355225,
		1.0]
	},
	{
		"bufferView":7,
		"type":"VEC2",
		"componentType":5126,
		"count":494,
		"byteOffset":24,
		"min":[0.008077179081737996,
		0.007884413003921509],
		"max":[0.9919227957725525,
		0.9921154975891113]
	}],
	"bufferViews":[{
		"buffer":0,
		"byteOffset":0,
		"byteLength":12576,
		"target":34963
	},
	{
		"buffer":0,
		"byteOffset":12576,
		"byteLength":94848,
		"target":34962,
		"byteStride":32
	},
	{
		"buffer":1,
		"byteOffset":0,
		"byteLength":27792,
		"target":34963
	},
	{
		"buffer":1,
		"byteOffset":27792,
		"byteLength":165888,
		"target":34962,
		"byteStride":32
	},
	{
		"buffer":2,
		"byteOffset":0,
		"byteLength":11040,
		"target":34963
	},
	{
		"buffer":2,
		"byteOffset":11040,
		"byteLength":76416,
		"target":34962,
		"byteStride":32
	},
	{
		"buffer":3,
		"byteOffset":0,
		"byteLength":2976,
		"target":34963
	},
	{
		"buffer":3,
		"byteOffset":2976,
		"byteLength":15808,
		"target":34962,
		"byteStride":32
	}],
	"buffers":[{
		"uri":"data:application/octet-stream;base64,",
		"byteLength":107424
	},
	{
		"uri":"data:application/octet-stream;base64,",
		"byteLength":193680
	},
	{
		"uri":"data:application/octet-stream;base64,",
		"byteLength":87456
	},
	{
		"uri":"data:application/octet-stream;base64,",
		"byteLength":18784
	}],
	"materials":[{
		"pbrMetallicRoughness":{
			"baseColorFactor":[0.15,
			0.15,
			0.15,
			1.0],
			"metallicFactor":0.0,
			"roughnessFactor":0.5
		},
		"emissiveFactor":[0.0,
		0.0,
		0.0],
		"alphaMode":"OPAQUE",
		"doubleSided":false,
		"name":"Mat.4"
	},
	{
		"pbrMetallicRoughness":{
			"baseColorFactor":[0.8,
			0.184,
			0.184,
			1.0],
			"metallicFactor":0.0,
			"roughnessFactor":0.5
		},
		"emissiveFactor":[0.0,
		0.0,
		0.0],
		"alphaMode":"OPAQUE",
		"doubleSided":false,
		"name":"Mat.5"
	},
	{
		"pbrMetallicRoughness":{
			"baseColorFactor":[0.8,
			0.8,
			0.8,
			1.0],
			"metallicFactor":0.0,
			"roughnessFactor":0.5
		},
		"emissiveFactor":[0.16999999999999999,
		0.4339999999999998,
		0.5],
		"alphaMode":"OPAQUE",
		"doubleSided":false,
		"name":"Mat"
	}]
}