{
	"asset":{
		"version":"2.0",
		"generator":"Created using the official Cinema 4D glTF Exporter 1.000x290161"
	},
	"scenes":[{
		"nodes":[0]
	}],
	"nodes":[{
		"name":"Sphere.1",
		"translation":[28.363256454467775,
		194.7079315185547,
		103.50894927978516],
		"rotation":[0.0,
		0.0,
		0.0,
		-1.0],
		"scale":[1.0,
		1.0,
		1.0],
		"mesh":0
	}],
	"meshes":[{
		"primitives":[{
			"attributes":{
				"POSITION":1,
				"NORMAL":2,
				"TEXCOORD_0":3
			},
			"indices":0,
			"material":0
		}]
	}],
	"accessors":[{
		"bufferView":0,
		"count":20664,
		"type":"SCALAR",
		"componentType":5123,
		"byteOffset":0,
		"min":[0],
		"max":[3747]
	},
	{
		"bufferView":1,
		"count":3748,
		"type":"VEC3",
		"componentType":5126,
		"byteOffset":0,
		"min":[-79.3632583618164,
		-191.00880432128907,
		-207.5089569091797],
		"max":[22.636743545532228,
		-11.163156509399414,
		0.4910488426685333]
	},
	{
		"bufferView":1,
		"count":3748,
		"type":"VEC3",
		"componentType":5126,
		"byteOffset":12,
		"min":[-0.9999998211860657,
		-1.0,
		-1.0],
		"max":[0.9999997615814209,
		1.0,
		1.0]
	},
	{
		"bufferView":1,
		"count":3748,
		"type":"VEC2",
		"componentType":5126,
		"byteOffset":24,
		"min":[0.007875338196754456,
		0.008179791271686554],
		"max":[0.9921246767044067,
		0.991820216178894]
	}],
	"bufferViews":[{
		"buffer":0,
		"byteOffset":0,
		"byteLength":41328,
		"target":34963
	},
	{
		"buffer":0,
		"byteStride":32,
		"byteOffset":41328,
		"byteLength":119936,
		"target":34962
	}],
	"buffers":[{
		"byteLength":161264,
		"uri":"data:application/octet-stream;base64,"
	}],
	"images":[{
		"uri":"data:image/jpeg;base64,"
	}],
	"samplers":[{
		"magFilter":9729,
		"minFilter":9729,
		"wrapS":10497,
		"wrapT":10497
	}],
	"textures":[{
		"sampler":0,
		"source":0
	}],
	"materials":[{
		"pbrMetallicRoughness":{
			"baseColorTexture":{
				"index":0
			},
			"baseColorFactor":[1.0,
			1.0,
			1.0,
			1.0],
			"metallicFactor":0.0,
			"roughnessFactor":0.5
		},
		"emissiveFactor":[0.0,
		0.0,
		0.0],
		"alphaMode":"OPAQUE",
		"doubleSided":false,
		"name":"Sphere"
	}]
}