{
	"asset":{
		"version":"2.0",
		"generator":"Created using the official Cinema 4D glTF Exporter 1.000x290161"
	},
	"scenes":[{
		"nodes":[0,
		9,
		10,
		11,
		12]
	}],
	"nodes":[{
		"name":"Symmetry",
		"translation":[0.449,
		-25.307,
		-6.214],
		"rotation":[0,
		0,
		0,
		-1],
		"scale":[1,
		1,
		1],
		"children":[1]
	},
	{
		"name":"Main",
		"translation":[0,
		85.192,
		-293.596],
		"rotation":[0,
		0,
		0,
		-1],
		"scale":[1,
		1,
		1],
		"mesh":0,
		"children":[2,
		3,
		4,
		5,
		6,
		7,
		8]
	},
	{
		"name":"Capsule",
		"translation":[14.916,
		-93.342,
		-1732.96],
		"rotation":[-0.707,
		0,
		0,
		0.707],
		"scale":[1,
		1,
		1],
		"mesh":1
	},
	{
		"name":"Capsule (Copy)",
		"translation":[14.916,
		-93.342,
		-1732.96],
		"rotation":[-0.707,
		0,
		0,
		0.707],
		"scale":[1,
		1,
		1],
		"mesh":2
	},
	{
		"name":"Vitre",
		"mesh":3
	},
	{
		"name":"Arme Bas",
		"translation":[14.286,
		-91.559,
		78.023],
		"rotation":[0.707,
		0,
		0,
		-0.708],
		"scale":[1,
		1,
		1],
		"mesh":4
	},
	{
		"name":"Arme Haut",
		"translation":[14.286,
		-91.559,
		78.023],
		"rotation":[0.707,
		0,
		0,
		-0.708],
		"scale":[1,
		1,
		1],
		"mesh":5
	},
	{
		"name":"Aile gauche haut",
		"translation":[302.599,
		-59.884,
		309.889],
		"rotation":[0,
		0,
		0,
		-1],
		"scale":[1,
		1,
		1],
		"mesh":6
	},
	{
		"name":"Aile gauche bas",
		"translation":[302.599,
		-59.884,
		309.889],
		"rotation":[0,
		0,
		0,
		-1],
		"scale":[1,
		1,
		1],
		"mesh":7
	},
	{
		"name":"exterieur_grand reacteur",
		"translation":[0,
		0,
		-95.017],
		"rotation":[0,
		0,
		0.707,
		0.707],
		"scale":[1,
		1,
		1],
		"mesh":8
	},
	{
		"name":"exterieur_petit reacteur",
		"translation":[0,
		0,
		9.247],
		"rotation":[0,
		0,
		0.707,
		0.707],
		"scale":[1,
		1,
		1],
		"mesh":9
	},
	{
		"name":"interieur_grand reacteur.1",
		"translation":[0,
		0,
		-95.017],
		"rotation":[0,
		0,
		0.707,
		0.707],
		"scale":[1,
		1,
		1],
		"mesh":10
	},
	{
		"name":"interieur_petit reacteur.1",
		"translation":[0,
		0,
		9.247],
		"rotation":[0,
		0,
		0.707,
		0.707],
		"scale":[1,
		1,
		1],
		"mesh":11
	}],
	"meshes":[{
		"primitives":[{
			"attributes":{
				"POSITION":1,
				"NORMAL":2,
				"TEXCOORD_0":3
			},
			"indices":0,
			"material":0
		}]
	},
	{
		"primitives":[{
			"attributes":{
				"POSITION":5,
				"NORMAL":6,
				"TEXCOORD_0":7
			},
			"indices":4,
			"material":1
		}]
	},
	{
		"primitives":[{
			"attributes":{
				"POSITION":9,
				"NORMAL":10,
				"TEXCOORD_0":11
			},
			"indices":8,
			"material":1
		}]
	},
	{
		"primitives":[{
			"attributes":{
				"POSITION":15,
				"NORMAL":16,
				"TEXCOORD_0":17
			},
			"indices":14,
			"material":2
		}]
	},
	{
		"primitives":[{
			"attributes":{
				"POSITION":19,
				"NORMAL":20,
				"TEXCOORD_0":21
			},
			"indices":18,
			"material":3
		}]
	},
	{
		"primitives":[{
			"attributes":{
				"POSITION":23,
				"NORMAL":24,
				"TEXCOORD_0":25
			},
			"indices":22,
			"material":3
		}]
	},
	{
		"primitives":[{
			"attributes":{
				"POSITION":27,
				"NORMAL":28,
				"TEXCOORD_0":29
			},
			"indices":26,
			"material":4
		}]
	},
	{
		"primitives":[{
			"attributes":{
				"POSITION":31,
				"NORMAL":32,
				"TEXCOORD_0":33
			},
			"indices":30,
			"material":4
		}]
	},
	{
		"primitives":[{
			"attributes":{
				"POSITION":35,
				"NORMAL":36,
				"TEXCOORD_0":37
			},
			"indices":34,
			"material":3
		}]
	},
	{
		"primitives":[{
			"attributes":{
				"POSITION":39,
				"NORMAL":40,
				"TEXCOORD_0":41
			},
			"indices":38,
			"material":3
		}]
	},
	{
		"primitives":[{
			"attributes":{
				"POSITION":43,
				"NORMAL":44,
				"TEXCOORD_0":45
			},
			"indices":42,
			"material":5
		}]
	},
	{
		"primitives":[{
			"attributes":{
				"POSITION":47,
				"NORMAL":48,
				"TEXCOORD_0":49
			},
			"indices":46,
			"material":5
		}]
	}],
	"accessors":[{
		"bufferView":0,
		"type":"SCALAR",
		"componentType":5123,
		"count":1758,
		"byteOffset":0,
		"min":[0],
		"max":[850]
	},
	{
		"bufferView":1,
		"type":"VEC3",
		"componentType":5126,
		"count":851,
		"byteOffset":0,
		"min":[-85.357,
		-179.889,
		-77.002],
		"max":[85.357,
		124.204,
		518.736]
	},
	{
		"bufferView":1,
		"type":"VEC3",
		"componentType":5126,
		"count":851,
		"byteOffset":12,
		"min":[-1,
		-1,
		-1],
		"max":[1,
		1,
		1]
	},
	{
		"bufferView":1,
		"type":"VEC2",
		"componentType":5126,
		"count":851,
		"byteOffset":24,
		"min":[0,
		0],
		"max":[1,
		1]
	},
	{
		"bufferView":2,
		"type":"SCALAR",
		"componentType":5123,
		"count":1836,
		"byteOffset":0,
		"min":[0],
		"max":[381]
	},
	{
		"bufferView":3,
		"type":"VEC3",
		"componentType":5126,
		"count":382,
		"byteOffset":0,
		"min":[-32.331,
		-15,
		-2.462],
		"max":[2.5,
		15,
		2.462]
	},
	{
		"bufferView":3,
		"type":"VEC3",
		"componentType":5126,
		"count":382,
		"byteOffset":12,
		"min":[-1,
		-1,
		-0.985],
		"max":[1,
		1,
		0.985]
	},
	{
		"bufferView":3,
		"type":"VEC2",
		"componentType":5126,
		"count":382,
		"byteOffset":24,
		"min":[0,
		0],
		"max":[1,
		1]
	},
	{
		"bufferView":4,
		"type":"SCALAR",
		"componentType":5123,
		"count":1836,
		"byteOffset":0,
		"min":[0],
		"max":[381]
	},
	{
		"bufferView":5,
		"type":"VEC3",
		"componentType":5126,
		"count":382,
		"byteOffset":0,
		"min":[-32.331,
		-15,
		-2.462],
		"max":[2.5,
		15,
		2.462]
	},
	{
		"bufferView":5,
		"type":"VEC3",
		"componentType":5126,
		"count":382,
		"byteOffset":12,
		"min":[-1,
		-1,
		-0.985],
		"max":[1,
		1,
		0.985]
	},
	{
		"bufferView":5,
		"type":"VEC2",
		"componentType":5126,
		"count":382,
		"byteOffset":24,
		"min":[0,
		0],
		"max":[1,
		1]
	},
	{
		"bufferView":6,
		"type":"SCALAR",
		"componentType":5126,
		"count":571,
		"byteOffset":0,
		"min":[0],
		"max":[56.667]
	},
	{
		"bufferView":6,
		"type":"VEC3",
		"componentType":5126,
		"count":571,
		"byteOffset":2284,
		"min":[0,
		-93.342,
		-1732.96],
		"max":[0,
		-91.922,
		48.593]
	},
	{
		"bufferView":7,
		"type":"SCALAR",
		"componentType":5123,
		"count":18,
		"byteOffset":0,
		"min":[0],
		"max":[9]
	},
	{
		"bufferView":8,
		"type":"VEC3",
		"componentType":5126,
		"count":10,
		"byteOffset":0,
		"min":[-16.494,
		7.454,
		-71.112],
		"max":[16.494,
		23.692,
		-25.321]
	},
	{
		"bufferView":8,
		"type":"VEC3",
		"componentType":5126,
		"count":10,
		"byteOffset":12,
		"min":[-0.783,
		0.429,
		-0.505],
		"max":[0.783,
		0.784,
		-0.336]
	},
	{
		"bufferView":8,
		"type":"VEC2",
		"componentType":5126,
		"count":10,
		"byteOffset":24,
		"min":[0.012,
		0.174],
		"max":[0.268,
		0.333]
	},
	{
		"bufferView":9,
		"type":"SCALAR",
		"componentType":5123,
		"count":960,
		"byteOffset":0,
		"min":[0],
		"max":[379]
	},
	{
		"bufferView":10,
		"type":"VEC3",
		"componentType":5126,
		"count":380,
		"byteOffset":0,
		"min":[-39.071,
		-20.393,
		-9.615],
		"max":[10.499,
		46.332,
		9.615]
	},
	{
		"bufferView":10,
		"type":"VEC3",
		"componentType":5126,
		"count":380,
		"byteOffset":12,
		"min":[-1,
		-1,
		-1],
		"max":[1,
		1,
		1]
	},
	{
		"bufferView":10,
		"type":"VEC2",
		"componentType":5126,
		"count":380,
		"byteOffset":24,
		"min":[0,
		0],
		"max":[1,
		1]
	},
	{
		"bufferView":11,
		"type":"SCALAR",
		"componentType":5123,
		"count":288,
		"byteOffset":0,
		"min":[0],
		"max":[133]
	},
	{
		"bufferView":12,
		"type":"VEC3",
		"componentType":5126,
		"count":134,
		"byteOffset":0,
		"min":[-31.022,
		76.694,
		60.396],
		"max":[2.45,
		126.881,
		68.906]
	},
	{
		"bufferView":12,
		"type":"VEC3",
		"componentType":5126,
		"count":134,
		"byteOffset":12,
		"min":[-0.997,
		0.031,
		-0.997],
		"max":[0.997,
		1,
		0.997]
	},
	{
		"bufferView":12,
		"type":"VEC2",
		"componentType":5126,
		"count":134,
		"byteOffset":24,
		"min":[0,
		0],
		"max":[1,
		0.799]
	},
	{
		"bufferView":13,
		"type":"SCALAR",
		"componentType":5123,
		"count":300,
		"byteOffset":0,
		"min":[0],
		"max":[142]
	},
	{
		"bufferView":14,
		"type":"VEC3",
		"componentType":5126,
		"count":143,
		"byteOffset":0,
		"min":[-630.02,
		20.403,
		-160.309],
		"max":[24.822,
		142.247,
		75.994]
	},
	{
		"bufferView":14,
		"type":"VEC3",
		"componentType":5126,
		"count":143,
		"byteOffset":12,
		"min":[-0.937,
		-0.964,
		-0.945],
		"max":[0.937,
		0.951,
		0.956]
	},
	{
		"bufferView":14,
		"type":"VEC2",
		"componentType":5126,
		"count":143,
		"byteOffset":24,
		"min":[0,
		0],
		"max":[1,
		1]
	},
	{
		"bufferView":15,
		"type":"SCALAR",
		"componentType":5123,
		"count":288,
		"byteOffset":0,
		"min":[0],
		"max":[141]
	},
	{
		"bufferView":16,
		"type":"VEC3",
		"componentType":5126,
		"count":142,
		"byteOffset":0,
		"min":[-618.717,
		-155.927,
		-160.335],
		"max":[13.519,
		-3.791,
		75.994]
	},
	{
		"bufferView":16,
		"type":"VEC3",
		"componentType":5126,
		"count":142,
		"byteOffset":12,
		"min":[-0.893,
		-0.909,
		-0.944],
		"max":[0.893,
		0.939,
		0.957]
	},
	{
		"bufferView":16,
		"type":"VEC2",
		"componentType":5126,
		"count":142,
		"byteOffset":24,
		"min":[0,
		0],
		"max":[1,
		1]
	},
	{
		"bufferView":17,
		"type":"SCALAR",
		"componentType":5123,
		"count":1428,
		"byteOffset":0,
		"min":[0],
		"max":[315]
	},
	{
		"bufferView":18,
		"type":"VEC3",
		"componentType":5126,
		"count":316,
		"byteOffset":0,
		"min":[-25.154,
		-47.77,
		161.688],
		"max":[70.695,
		48.259,
		354.297]
	},
	{
		"bufferView":18,
		"type":"VEC3",
		"componentType":5126,
		"count":316,
		"byteOffset":12,
		"min":[-1,
		-1,
		-0.29],
		"max":[1,
		1,
		1]
	},
	{
		"bufferView":18,
		"type":"VEC2",
		"componentType":5126,
		"count":316,
		"byteOffset":24,
		"min":[0,
		0],
		"max":[1,
		1]
	},
	{
		"bufferView":19,
		"type":"SCALAR",
		"componentType":5123,
		"count":1152,
		"byteOffset":0,
		"min":[0],
		"max":[260]
	},
	{
		"bufferView":20,
		"type":"VEC3",
		"componentType":5126,
		"count":261,
		"byteOffset":0,
		"min":[-93.192,
		-21.022,
		124.597],
		"max":[-50.802,
		21.448,
		213.471]
	},
	{
		"bufferView":20,
		"type":"VEC3",
		"componentType":5126,
		"count":261,
		"byteOffset":12,
		"min":[-1,
		-1,
		-0.191],
		"max":[1,
		1,
		1]
	},
	{
		"bufferView":20,
		"type":"VEC2",
		"componentType":5126,
		"count":261,
		"byteOffset":24,
		"min":[0,
		0],
		"max":[1,
		1]
	},
	{
		"bufferView":21,
		"type":"SCALAR",
		"componentType":5123,
		"count":96,
		"byteOffset":0,
		"min":[0],
		"max":[32]
	},
	{
		"bufferView":22,
		"type":"VEC3",
		"componentType":5126,
		"count":33,
		"byteOffset":0,
		"min":[-16.535,
		-38.97,
		284.685],
		"max":[62.076,
		39.64,
		353.688]
	},
	{
		"bufferView":22,
		"type":"VEC3",
		"componentType":5126,
		"count":33,
		"byteOffset":12,
		"min":[-0.869,
		-0.868,
		0.495],
		"max":[0.869,
		0.869,
		1]
	},
	{
		"bufferView":22,
		"type":"VEC2",
		"componentType":5126,
		"count":33,
		"byteOffset":24,
		"min":[0.09,
		0.09],
		"max":[0.91,
		0.91]
	},
	{
		"bufferView":23,
		"type":"SCALAR",
		"componentType":5123,
		"count":96,
		"byteOffset":0,
		"min":[0],
		"max":[32]
	},
	{
		"bufferView":24,
		"type":"VEC3",
		"componentType":5126,
		"count":33,
		"byteOffset":0,
		"min":[-89.38,
		-17.13,
		158.017],
		"max":[-54.614,
		17.636,
		213.217]
	},
	{
		"bufferView":24,
		"type":"VEC3",
		"componentType":5126,
		"count":33,
		"byteOffset":12,
		"min":[-0.954,
		-0.954,
		0.3],
		"max":[0.954,
		0.954,
		1]
	},
	{
		"bufferView":24,
		"type":"VEC2",
		"componentType":5126,
		"count":33,
		"byteOffset":24,
		"min":[0.09,
		0.09],
		"max":[0.91,
		0.91]
	}],
	"bufferViews":[{
		"buffer":0,
		"byteOffset":0,
		"byteLength":3516,
		"target":34963
	},
	{
		"buffer":0,
		"byteOffset":3516,
		"byteLength":27232,
		"target":34962,
		"byteStride":32
	},
	{
		"buffer":1,
		"byteOffset":0,
		"byteLength":3672,
		"target":34963
	},
	{
		"buffer":1,
		"byteOffset":3672,
		"byteLength":12224,
		"target":34962,
		"byteStride":32
	},
	{
		"buffer":2,
		"byteOffset":0,
		"byteLength":3672,
		"target":34963
	},
	{
		"buffer":2,
		"byteOffset":3672,
		"byteLength":12224,
		"target":34962,
		"byteStride":32
	},
	{
		"buffer":3,
		"byteOffset":0,
		"byteLength":9136
	},
	{
		"buffer":4,
		"byteOffset":0,
		"byteLength":36,
		"target":34963
	},
	{
		"buffer":4,
		"byteOffset":36,
		"byteLength":320,
		"target":34962,
		"byteStride":32
	},
	{
		"buffer":5,
		"byteOffset":0,
		"byteLength":1920,
		"target":34963
	},
	{
		"buffer":5,
		"byteOffset":1920,
		"byteLength":12160,
		"target":34962,
		"byteStride":32
	},
	{
		"buffer":6,
		"byteOffset":0,
		"byteLength":576,
		"target":34963
	},
	{
		"buffer":6,
		"byteOffset":576,
		"byteLength":4288,
		"target":34962,
		"byteStride":32
	},
	{
		"buffer":7,
		"byteOffset":0,
		"byteLength":600,
		"target":34963
	},
	{
		"buffer":7,
		"byteOffset":600,
		"byteLength":4576,
		"target":34962,
		"byteStride":32
	},
	{
		"buffer":8,
		"byteOffset":0,
		"byteLength":576,
		"target":34963
	},
	{
		"buffer":8,
		"byteOffset":576,
		"byteLength":4544,
		"target":34962,
		"byteStride":32
	},
	{
		"buffer":9,
		"byteOffset":0,
		"byteLength":2856,
		"target":34963
	},
	{
		"buffer":9,
		"byteOffset":2856,
		"byteLength":10112,
		"target":34962,
		"byteStride":32
	},
	{
		"buffer":10,
		"byteOffset":0,
		"byteLength":2304,
		"target":34963
	},
	{
		"buffer":10,
		"byteOffset":2304,
		"byteLength":8352,
		"target":34962,
		"byteStride":32
	},
	{
		"buffer":11,
		"byteOffset":0,
		"byteLength":192,
		"target":34963
	},
	{
		"buffer":11,
		"byteOffset":192,
		"byteLength":1056,
		"target":34962,
		"byteStride":32
	},
	{
		"buffer":12,
		"byteOffset":0,
		"byteLength":192,
		"target":34963
	},
	{
		"buffer":12,
		"byteOffset":192,
		"byteLength":1056,
		"target":34962,
		"byteStride":32
	}],
	"buffers":[{
		"uri":"data:application/octet-stream;base64,",
		"byteLength":30748
	},
	{
		"uri":"data:application/octet-stream;base64,",
		"byteLength":15896
	},
	{
		"uri":"data:application/octet-stream;base64,",
		"byteLength":15896
	},
	{
		"uri":"data:application/octet-stream;base64,",
		"byteLength":9136
	},
	{
		"uri":"data:application/octet-stream;base64,",
		"byteLength":356
	},
	{
		"uri":"data:application/octet-stream;base64,",
		"byteLength":14080
	},
	{
		"uri":"data:application/octet-stream;base64,",
		"byteLength":4864
	},
	{
		"uri":"data:application/octet-stream;base64,",
		"byteLength":5176
	},
	{
		"uri":"data:application/octet-stream;base64,",
		"byteLength":5120
	},
	{
		"uri":"data:application/octet-stream;base64,",
		"byteLength":12968
	},
	{
		"uri":"data:application/octet-stream;base64,",
		"byteLength":10656
	},
	{
		"uri":"data:application/octet-stream;base64,",
		"byteLength":1248
	},
	{
		"uri":"data:application/octet-stream;base64,",
		"byteLength":1248
	}],
	"images":[{
		"uri":"data:image/jpeg;base64,"
	},
	{
		"uri":"data:image/jpeg;base64,"
	},
	{
		"uri":"data:image/jpeg;base64,"
	},
	{
		"uri":"data:image/jpeg;base64,"
	},
	{
		"uri":"data:image/jpeg;base64,"
	},
	{
		"uri":"data:image/jpeg;base64,"
	}],
	"samplers":[{
		"magFilter":9729,
		"minFilter":9729,
		"wrapS":10497,
		"wrapT":10497
	},
	{
		"magFilter":9729,
		"minFilter":9729,
		"wrapS":10497,
		"wrapT":10497
	},
	{
		"magFilter":9729,
		"minFilter":9729,
		"wrapS":10497,
		"wrapT":10497
	},
	{
		"magFilter":9729,
		"minFilter":9729,
		"wrapS":10497,
		"wrapT":10497
	},
	{
		"magFilter":9729,
		"minFilter":9729,
		"wrapS":10497,
		"wrapT":10497
	},
	{
		"magFilter":9729,
		"minFilter":9729,
		"wrapS":10497,
		"wrapT":10497
	}],
	"textures":[{
		"sampler":0,
		"source":0
	},
	{
		"sampler":1,
		"source":1
	},
	{
		"sampler":2,
		"source":2
	},
	{
		"sampler":3,
		"source":3
	},
	{
		"sampler":4,
		"source":4
	},
	{
		"sampler":5,
		"source":5
	}],
	"materials":[{
		"pbrMetallicRoughness":{
			"baseColorTexture":{
				"index":0
			},
			"baseColorFactor":[1,
			1,
			1,
			1],
			"metallicFactor":0,
			"roughnessFactor":0.5
		},
		"emissiveFactor":[0,
		0,
		0],
		"alphaMode":"OPAQUE",
		"doubleSided":true,
		"name":"Vaisseau"
	},
	{
		"pbrMetallicRoughness":{
			"baseColorTexture":{
				"index":1
			},
			"baseColorFactor":[1,
			1,
			1,
			1],
			"metallicFactor":0,
			"roughnessFactor":0.5
		},
		"emissiveTexture":{
			"index":2
		},
		"emissiveFactor":[0.95,
		0.95,
		0.95],
		"alphaMode":"OPAQUE",
		"doubleSided":true,
		"name":"Laser"
	},
	{
		"pbrMetallicRoughness":{
			"baseColorFactor":[0,
			0,
			0,
			0.3],
			"metallicFactor":0,
			"roughnessFactor":0.5
		},
		"emissiveFactor":[0,
		0,
		0],
		"alphaMode":"BLEND",
		"doubleSided":true,
		"name":"Vitre"
	},
	{
		"pbrMetallicRoughness":{
			"baseColorTexture":{
				"index":3
			},
			"baseColorFactor":[1,
			1,
			1,
			1],
			"metallicFactor":0,
			"roughnessFactor":0.5
		},
		"emissiveFactor":[0,
		0,
		0],
		"alphaMode":"OPAQUE",
		"doubleSided":true,
		"name":"exterieur_reacteur"
	},
	{
		"pbrMetallicRoughness":{
			"baseColorTexture":{
				"index":4
			},
			"baseColorFactor":[1,
			1,
			1,
			1],
			"metallicFactor":1,
			"roughnessFactor":1
		},
		"emissiveFactor":[0,
		0,
		0],
		"alphaMode":"OPAQUE",
		"doubleSided":true,
		"name":"Ailes"
	},
	{
		"pbrMetallicRoughness":{
			"baseColorTexture":{
				"index":5
			},
			"baseColorFactor":[1,
			1,
			1,
			1],
			"metallicFactor":0,
			"roughnessFactor":0.5
		},
		"emissiveFactor":[0,
		0,
		0],
		"alphaMode":"OPAQUE",
		"doubleSided":true,
		"name":"Interieur_reacteur"
	}],
	"animations":[{
		"samplers":[{
			"input":12,
			"interpolation":"LINEAR",
			"output":13
		}],
		"channels":[{
			"sampler":0,
			"target":{
				"node":3,
				"path":"translation"
			}
		}]
	}]
}