{
	"asset":{
		"version":"2.0",
		"generator":"Created using the official Cinema 4D glTF Exporter 1.000x290161"
	},
	"scenes":[{
		"nodes":[0,
		1,
		2]
	}],
	"nodes":[{
		"name":"vaisseau",
		"translation":[-36.878,
		-46.87,
		99.651],
		"rotation":[0,
		0,
		0,
		-1],
		"scale":[1,
		1,
		1],
		"mesh":0
	},
	{
		"name":"corps R2.1",
		"translation":[3.907,
		90.77,
		-0.033],
		"rotation":[0,
		0,
		0,
		-1],
		"scale":[1,
		1,
		1],
		"mesh":1
	},
	{
		"name":"ailes.1",
		"translation":[-2.734,
		67.487,
		-172.752],
		"rotation":[0,
		0,
		0,
		-1],
		"scale":[1,
		1,
		1],
		"mesh":2
	}],
	"meshes":[{
		"primitives":[{
			"attributes":{
				"POSITION":1,
				"NORMAL":2,
				"TEXCOORD_0":3
			},
			"indices":0,
			"material":0
		}]
	},
	{
		"primitives":[{
			"attributes":{
				"POSITION":5,
				"NORMAL":6,
				"TEXCOORD_0":7
			},
			"indices":4,
			"material":1
		}]
	},
	{
		"primitives":[{
			"attributes":{
				"POSITION":9,
				"NORMAL":10,
				"TEXCOORD_0":11
			},
			"indices":8,
			"material":2
		}]
	}],
	"accessors":[{
		"bufferView":0,
		"min":[0],
		"type":"SCALAR",
		"componentType":5123,
		"count":6300,
		"byteOffset":0,
		"max":[2635]
	},
	{
		"bufferView":1,
		"min":[-169.119,
		-174.584,
		-1087.006],
		"type":"VEC3",
		"componentType":5126,
		"count":2636,
		"byteOffset":0,
		"max":[169.119,
		174.584,
		1087.006]
	},
	{
		"bufferView":1,
		"min":[-1,
		-1,
		-1],
		"type":"VEC3",
		"componentType":5126,
		"count":2636,
		"byteOffset":12,
		"max":[1,
		1,
		1]
	},
	{
		"bufferView":1,
		"min":[0.008,
		0.008],
		"type":"VEC2",
		"componentType":5126,
		"count":2636,
		"byteOffset":24,
		"max":[0.992,
		0.992]
	},
	{
		"bufferView":2,
		"min":[0],
		"type":"SCALAR",
		"componentType":5123,
		"count":1530,
		"byteOffset":0,
		"max":[515]
	},
	{
		"bufferView":3,
		"min":[-45.554,
		29.315,
		-51.181],
		"type":"VEC3",
		"componentType":5126,
		"count":516,
		"byteOffset":0,
		"max":[45.554,
		73.321,
		51.094]
	},
	{
		"bufferView":3,
		"min":[-0.987,
		-0.987,
		-0.985],
		"type":"VEC3",
		"componentType":5126,
		"count":516,
		"byteOffset":12,
		"max":[0.987,
		1,
		0.985]
	},
	{
		"bufferView":3,
		"min":[0.009,
		0.009],
		"type":"VEC2",
		"componentType":5126,
		"count":516,
		"byteOffset":24,
		"max":[0.991,
		0.991]
	},
	{
		"bufferView":4,
		"min":[0],
		"type":"SCALAR",
		"componentType":5123,
		"count":4476,
		"byteOffset":0,
		"max":[1918]
	},
	{
		"bufferView":5,
		"min":[-793.073,
		-58.497,
		-394.674],
		"type":"VEC3",
		"componentType":5126,
		"count":1919,
		"byteOffset":0,
		"max":[793.073,
		58.497,
		394.674]
	},
	{
		"bufferView":5,
		"min":[-1,
		-1,
		-1],
		"type":"VEC3",
		"componentType":5126,
		"count":1919,
		"byteOffset":12,
		"max":[1,
		1,
		1]
	},
	{
		"bufferView":5,
		"min":[0.008,
		0.008],
		"type":"VEC2",
		"componentType":5126,
		"count":1919,
		"byteOffset":24,
		"max":[0.992,
		0.992]
	}],
	"bufferViews":[{
		"buffer":0,
		"byteOffset":0,
		"byteLength":12600,
		"target":34963
	},
	{
		"buffer":0,
		"byteOffset":12600,
		"byteLength":84352,
		"target":34962,
		"byteStride":32
	},
	{
		"buffer":1,
		"byteOffset":0,
		"byteLength":3060,
		"target":34963
	},
	{
		"buffer":1,
		"byteOffset":3060,
		"byteLength":16512,
		"target":34962,
		"byteStride":32
	},
	{
		"buffer":2,
		"byteOffset":0,
		"byteLength":8952,
		"target":34963
	},
	{
		"buffer":2,
		"byteOffset":8952,
		"byteLength":61408,
		"target":34962,
		"byteStride":32
	}],
	"buffers":[{
		"uri":"data:application/octet-stream;base64,",
		"byteLength":96952
	},
	{
		"uri":"data:application/octet-stream;base64,",
		"byteLength":19572
	},
	{
		"uri":"data:application/octet-stream;base64,",
		"byteLength":70360
	}],
	"images":[{
		"uri":"data:image/jpeg;base64,"
	},
	{
		"uri":"data:image/jpeg;base64,"
	},
	{
		"uri":"data:image/jpeg;base64,"
	}],
	"samplers":[{
		"magFilter":9729,
		"minFilter":9729,
		"wrapS":10497,
		"wrapT":10497
	},
	{
		"magFilter":9729,
		"minFilter":9729,
		"wrapS":10497,
		"wrapT":10497
	},
	{
		"magFilter":9729,
		"minFilter":9729,
		"wrapS":10497,
		"wrapT":10497
	}],
	"textures":[{
		"sampler":0,
		"source":0
	},
	{
		"sampler":1,
		"source":1
	},
	{
		"sampler":2,
		"source":2
	}],
	"materials":[{
		"pbrMetallicRoughness":{
			"baseColorTexture":{
				"index":0
			},
			"baseColorFactor":[1,
			1,
			1,
			1],
			"metallicFactor":0,
			"roughnessFactor":0.5
		},
		"emissiveFactor":[0,
		0,
		0],
		"alphaMode":"OPAQUE",
		"doubleSided":false,
		"name":"vaisseau"
	},
	{
		"pbrMetallicRoughness":{
			"baseColorTexture":{
				"index":1
			},
			"baseColorFactor":[1,
			1,
			1,
			1],
			"metallicFactor":0,
			"roughnessFactor":0.5
		},
		"emissiveFactor":[0,
		0,
		0],
		"alphaMode":"OPAQUE",
		"doubleSided":false,
		"name":"corps R2"
	},
	{
		"pbrMetallicRoughness":{
			"baseColorTexture":{
				"index":2
			},
			"baseColorFactor":[1,
			1,
			1,
			1],
			"metallicFactor":0,
			"roughnessFactor":0.5
		},
		"emissiveFactor":[0,
		0,
		0],
		"alphaMode":"OPAQUE",
		"doubleSided":false,
		"name":"ailes"
	}]
}