{
	"asset":{
		"version":"2.0",
		"generator":"Created using the official Cinema 4D glTF Exporter 1.000x290161"
	},
	"bufferViews":[{
		"buffer":0,
		"byteOffset":0,
		"byteLength":1320,
		"target":34963
	},
	{
		"buffer":0,
		"byteOffset":1320,
		"byteLength":4800,
		"target":34962,
		"byteStride":20
	},
	{
		"buffer":1,
		"byteOffset":0,
		"byteLength":1320,
		"target":34963
	},
	{
		"buffer":1,
		"byteOffset":1320,
		"byteLength":4740,
		"target":34962,
		"byteStride":20
	},
	{
		"buffer":2,
		"byteOffset":0,
		"byteLength":13872,
		"target":34963
	},
	{
		"buffer":2,
		"byteOffset":13872,
		"byteLength":55100,
		"target":34962,
		"byteStride":20
	}],
	"scenes":[{
		"nodes":[0,
		1,
		2]
	}],
	"meshes":[{
		"primitives":[{
			"attributes":{
				"POSITION":1,
				"TEXCOORD_0":2
			},
			"indices":0,
			"material":0
		}]
	},
	{
		"primitives":[{
			"attributes":{
				"POSITION":4,
				"TEXCOORD_0":5
			},
			"indices":3,
			"material":1
		}]
	},
	{
		"primitives":[{
			"attributes":{
				"POSITION":7,
				"TEXCOORD_0":8
			},
			"indices":6,
			"material":2
		}]
	}],
	"nodes":[{
		"name":"Cylinder.4",
		"translation":[-130.428,
		5.762,
		-35.227],
		"rotation":[0,
		0,
		0.707,
		-0.707],
		"scale":[1,
		1,
		1],
		"mesh":0
	},
	{
		"name":"Cylinder.3",
		"translation":[-130.428,
		5.762,
		-35.227],
		"rotation":[0,
		0,
		0.707,
		-0.707],
		"scale":[1,
		1,
		1],
		"mesh":1
	},
	{
		"name":"Cylinder.1",
		"translation":[-106.66,
		1.493,
		-22.07],
		"rotation":[0,
		0,
		0,
		-1],
		"scale":[1,
		1,
		1],
		"mesh":2
	}],
	"materials":[{
		"pbrMetallicRoughness":{
			"baseColorTexture":{
				"index":0
			},
			"baseColorFactor":[1,
			1,
			1,
			1],
			"metallicFactor":0,
			"roughnessFactor":0.5
		},
		"emissiveFactor":[0,
		0,
		0],
		"alphaMode":"OPAQUE",
		"doubleSided":false,
		"name":"Cylinder"
	},
	{
		"pbrMetallicRoughness":{
			"baseColorTexture":{
				"index":1
			},
			"baseColorFactor":[1,
			1,
			1,
			1],
			"metallicFactor":0,
			"roughnessFactor":0.5
		},
		"emissiveFactor":[0,
		0,
		0],
		"alphaMode":"OPAQUE",
		"doubleSided":false,
		"name":"Cylinder.1"
	},
	{
		"pbrMetallicRoughness":{
			"baseColorTexture":{
				"index":2
			},
			"baseColorFactor":[1,
			1,
			1,
			1],
			"metallicFactor":0,
			"roughnessFactor":0.5
		},
		"emissiveFactor":[0,
		0,
		0],
		"alphaMode":"OPAQUE",
		"doubleSided":false,
		"name":"Cylinder.2"
	}],
	"accessors":[{
		"bufferView":0,
		"type":"SCALAR",
		"componentType":5123,
		"count":660,
		"byteOffset":0,
		"min":[0],
		"max":[239]
	},
	{
		"bufferView":1,
		"type":"VEC3",
		"componentType":5126,
		"count":240,
		"byteOffset":0,
		"min":[-1.289,
		13.431,
		23.406],
		"max":[2.365,
		24.091,
		27.316]
	},
	{
		"bufferView":1,
		"type":"VEC2",
		"componentType":5126,
		"count":240,
		"byteOffset":12,
		"min":[0.009,
		0.009],
		"max":[0.991,
		0.991]
	},
	{
		"bufferView":2,
		"type":"SCALAR",
		"componentType":5123,
		"count":660,
		"byteOffset":0,
		"min":[0],
		"max":[236]
	},
	{
		"bufferView":3,
		"type":"VEC3",
		"componentType":5126,
		"count":237,
		"byteOffset":0,
		"min":[-1.281,
		14.289,
		-1.052],
		"max":[2.373,
		24.949,
		2.857]
	},
	{
		"bufferView":3,
		"type":"VEC2",
		"componentType":5126,
		"count":237,
		"byteOffset":12,
		"min":[0.009,
		0.009],
		"max":[0.991,
		0.991]
	},
	{
		"bufferView":4,
		"type":"SCALAR",
		"componentType":5123,
		"count":6936,
		"byteOffset":0,
		"min":[0],
		"max":[2754]
	},
	{
		"bufferView":5,
		"type":"VEC3",
		"componentType":5126,
		"count":2755,
		"byteOffset":0,
		"min":[-156.771,
		-23.554,
		-68.619],
		"max":[156.771,
		23.554,
		68.619]
	},
	{
		"bufferView":5,
		"type":"VEC2",
		"componentType":5126,
		"count":2755,
		"byteOffset":12,
		"min":[0.007,
		0.007],
		"max":[0.993,
		0.993]
	}],
	"buffers":[{
		"uri":"data:application/octet-stream;base64,",
		"byteLength":6120
	},
	{
		"uri":"data:application/octet-stream;base64,",
		"byteLength":6060
	},
	{
		"uri":"data:application/octet-stream;base64,",
		"byteLength":68972
	}],
	"images":[{
		"uri":"data:image/jpeg;base64,"
	},
	{
		"uri":"data:image/jpeg;base64,"
	},
	{
		"uri":"data:image/jpeg;base64,"
	}],
	"samplers":[{
		"magFilter":9729,
		"minFilter":9729,
		"wrapS":10497,
		"wrapT":10497
	},
	{
		"magFilter":9729,
		"minFilter":9729,
		"wrapS":10497,
		"wrapT":10497
	},
	{
		"magFilter":9729,
		"minFilter":9729,
		"wrapS":10497,
		"wrapT":10497
	}],
	"textures":[{
		"sampler":0,
		"source":0
	},
	{
		"sampler":1,
		"source":1
	},
	{
		"sampler":2,
		"source":2
	}]
}