{
	"asset":{
		"version":"2.0",
		"generator":"Created using the official Cinema 4D glTF Exporter 1.000x290161"
	},
	"scenes":[{
		"nodes":[0,
		3]
	}],
	"nodes":[{
		"name":"modeling wip",
		"children":[1]
	},
	{
		"name":"TIE",
		"children":[2]
	},
	{
		"name":"TIE",
		"translation":[0.0,
		0.0,
		0.0],
		"mesh":0,
		"rotation":[-0.7071067690849304,
		0.0,
		0.0,
		-0.7071067690849304],
		"scale":[1.0,
		1.0,
		1.0]
	},
	{
		"name":"TIE",
		"children":[4]
	},
	{
		"name":"TIE",
		"translation":[0.0,
		0.0,
		0.0],
		"mesh":1,
		"rotation":[-0.7071067690849304,
		0.0,
		0.0,
		-0.7071067690849304],
		"scale":[1.0,
		1.0,
		1.0]
	}],
	"meshes":[{
		"primitives":[{
			"attributes":{
				"POSITION":1,
				"NORMAL":2,
				"TEXCOORD_0":3
			},
			"indices":0,
			"material":0
		}]
	},
	{
		"primitives":[{
			"attributes":{
				"POSITION":5,
				"NORMAL":6,
				"TEXCOORD_0":7
			},
			"indices":4,
			"material":1
		}]
	}],
	"accessors":[{
		"bufferView":0,
		"type":"SCALAR",
		"componentType":5123,
		"count":5460,
		"byteOffset":0,
		"min":[0],
		"max":[2862]
	},
	{
		"bufferView":1,
		"type":"VEC3",
		"componentType":5126,
		"count":2863,
		"byteOffset":0,
		"min":[-213.5218048095703,
		-227.77381896972657,
		-260.7363586425781],
		"max":[213.5218048095703,
		227.76641845703126,
		260.7363586425781]
	},
	{
		"bufferView":1,
		"type":"VEC3",
		"componentType":5126,
		"count":2863,
		"byteOffset":12,
		"min":[-1.0,
		-1.0,
		-1.0],
		"max":[1.0,
		1.0,
		1.0]
	},
	{
		"bufferView":1,
		"type":"VEC2",
		"componentType":5126,
		"count":2863,
		"byteOffset":24,
		"min":[0.0,
		0.0],
		"max":[1.0,
		1.0]
	},
	{
		"bufferView":2,
		"type":"SCALAR",
		"componentType":5123,
		"count":5460,
		"byteOffset":0,
		"min":[0],
		"max":[2533]
	},
	{
		"bufferView":3,
		"type":"VEC3",
		"componentType":5126,
		"count":2534,
		"byteOffset":0,
		"min":[-213.5218048095703,
		-227.77381896972657,
		-260.7363586425781],
		"max":[213.5218048095703,
		227.76641845703126,
		260.7363586425781]
	},
	{
		"bufferView":3,
		"type":"VEC3",
		"componentType":5126,
		"count":2534,
		"byteOffset":12,
		"min":[-1.0,
		-1.0,
		-1.0],
		"max":[1.0,
		1.0,
		1.0]
	},
	{
		"bufferView":3,
		"type":"VEC2",
		"componentType":5126,
		"count":2534,
		"byteOffset":24,
		"min":[0.02675887942314148,
		0.016502443701028825],
		"max":[0.9818544387817383,
		0.9892443418502808]
	}],
	"bufferViews":[{
		"buffer":0,
		"byteOffset":0,
		"byteLength":10920,
		"target":34963
	},
	{
		"buffer":0,
		"byteOffset":10920,
		"byteLength":91616,
		"target":34962,
		"byteStride":32
	},
	{
		"buffer":1,
		"byteOffset":0,
		"byteLength":10920,
		"target":34963
	},
	{
		"buffer":1,
		"byteOffset":10920,
		"byteLength":81088,
		"target":34962,
		"byteStride":32
	}],
	"buffers":[{
		"uri":"data:application/octet-stream;base64,",
		"byteLength":102536
	},
	{
		"uri":"data:application/octet-stream;base64,",
		"byteLength":92008
	}],
	"images":[{
		"uri":"data:image/jpeg;base64,"
	},
	{
		"uri":"data:image/jpeg;base64,"
	}],
	"samplers":[{
		"magFilter":9729,
		"minFilter":9729,
		"wrapS":10497,
		"wrapT":10497
	},
	{
		"magFilter":9729,
		"minFilter":9729,
		"wrapS":10497,
		"wrapT":10497
	}],
	"textures":[{
		"sampler":0,
		"source":0
	},
	{
		"sampler":1,
		"source":1
	}],
	"materials":[{
		"pbrMetallicRoughness":{
			"baseColorFactor":[1.0,
			1.0,
			1.0,
			1.0],
			"metallicFactor":1.0,
			"roughnessFactor":1.0
		},
		"emissiveFactor":[0.0,
		0.0,
		0.0],
		"alphaMode":"OPAQUE",
		"doubleSided":false,
		"name":""
	},
	{
		"pbrMetallicRoughness":{
			"baseColorTexture":{
				"index":0
			},
			"baseColorFactor":[1.0,
			1.0,
			1.0,
			1.0],
			"metallicFactor":1.0,
			"roughnessFactor":1.0
		},
		"normalTexture":{
			"index":1,
			"scale":0.2
		},
		"emissiveFactor":[0.0,
		0.0,
		0.0],
		"alphaMode":"OPAQUE",
		"doubleSided":false,
		"name":"tie fighter"
	}]
}