{
	"asset":{
		"version":"2.0",
		"generator":"Created using the official Cinema 4D glTF Exporter 1.000x290161"
	},
	"scenes":[{
		"nodes":[0]
	}],
	"nodes":[{
		"name":"vaisseau.1",
		"translation":[0.0,
		-6.881711006164551,
		-153.19456481933595],
		"rotation":[0.0,
		0.0,
		0.0,
		-1.0],
		"scale":[1.0,
		1.0,
		1.0],
		"mesh":0
	}],
	"meshes":[{
		"primitives":[{
			"material":0,
			"attributes":{
				"POSITION":1,
				"TEXCOORD_0":3,
				"NORMAL":2
			},
			"indices":0
		}]
	}],
	"accessors":[{
		"bufferView":0,
		"type":"SCALAR",
		"componentType":5123,
		"count":6723,
		"byteOffset":0,
		"min":[0],
		"max":[2598]
	},
	{
		"bufferView":1,
		"type":"VEC3",
		"componentType":5126,
		"count":2599,
		"byteOffset":0,
		"min":[-526.8274536132813,
		-304.23388671875,
		-483.2310485839844],
		"max":[526.8274536132813,
		103.11507415771485,
		794.6331176757813]
	},
	{
		"bufferView":1,
		"type":"VEC3",
		"componentType":5126,
		"count":2599,
		"byteOffset":12,
		"min":[-1.0,
		-1.0,
		-1.0],
		"max":[1.0,
		1.0,
		1.0]
	},
	{
		"bufferView":1,
		"type":"VEC2",
		"componentType":5126,
		"count":2599,
		"byteOffset":24,
		"min":[0.00830813031643629,
		0.00831405445933342],
		"max":[0.9916918873786926,
		0.9916858673095703]
	}],
	"bufferViews":[{
		"buffer":0,
		"byteOffset":0,
		"byteLength":13446,
		"target":34963
	},
	{
		"buffer":0,
		"byteOffset":13448,
		"byteLength":83168,
		"target":34962,
		"byteStride":32
	}],
	"buffers":[{
		"uri":"data:application/octet-stream;base64,",
		"byteLength":96616
	}],
	"images":[{
		"uri":"data:image/jpeg;base64,"
	}],
	"samplers":[{
		"magFilter":9729,
		"minFilter":9729,
		"wrapS":10497,
		"wrapT":10497
	}],
	"textures":[{
		"sampler":0,
		"source":0
	}],
	"materials":[{
		"pbrMetallicRoughness":{
			"baseColorTexture":{
				"index":0
			},
			"baseColorFactor":[1.0,
			1.0,
			1.0,
			1.0],
			"metallicFactor":0.0,
			"roughnessFactor":0.5
		},
		"emissiveFactor":[0.0,
		0.0,
		0.0],
		"alphaMode":"OPAQUE",
		"doubleSided":false,
		"name":"vaisseau"
	}]
}