{
	"asset":{
		"version":"2.0",
		"generator":"Created using the official Cinema 4D glTF Exporter 1.000x290161"
	},
	"scenes":[{
		"nodes":[0,
		1,
		2,
		3,
		4,
		5,
		6,
		7,
		8]
	}],
	"nodes":[{
		"name":"Tube.1",
		"translation":[-71.91972351074219,
		103.65660858154297,
		-309.58599853515627],
		"rotation":[-0.7071067690849304,
		0.0,
		0.0,
		-0.7071067690849304],
		"scale":[1.0,
		1.0,
		1.0],
		"mesh":0
	},
	{
		"name":"Tube",
		"translation":[103.32998657226563,
		103.65660858154297,
		-309.58599853515627],
		"rotation":[-0.7071067690849304,
		0.0,
		0.0,
		-0.7071067690849304],
		"scale":[1.0,
		1.0,
		1.0],
		"mesh":1
	},
	{
		"name":"Cylindre.5",
		"translation":[272.4039306640625,
		115.93243408203125,
		-41.142189025878909],
		"rotation":[0.7003280520439148,
		0.038067176938056949,
		0.03966102376580238,
		0.7117011547088623],
		"scale":[1.0,
		1.0,
		1.0],
		"mesh":2
	},
	{
		"name":"Cylindre.6",
		"translation":[-220.2822265625,
		109.26680755615235,
		-87.85381317138672],
		"rotation":[0.4283178746700287,
		0.5653650760650635,
		-0.5580737590789795,
		0.4306504726409912],
		"scale":[1.0,
		1.051084280014038,
		1.0],
		"mesh":3
	},
	{
		"name":"Cylindre.3",
		"translation":[247.55029296875,
		113.91568756103516,
		-82.41937255859375],
		"rotation":[0.5716556310653687,
		0.4198853671550751,
		-0.4122316241264343,
		0.5718139410018921],
		"scale":[1.0,
		1.051084280014038,
		1.0],
		"mesh":4
	},
	{
		"name":"Tore.2",
		"translation":[231.01458740234376,
		114.25212860107422,
		-86.52983093261719],
		"rotation":[0.5473566651344299,
		0.42319318652153017,
		-0.3755025565624237,
		0.6166895627975464],
		"scale":[1.0,
		1.0,
		1.0],
		"mesh":5
	},
	{
		"name":"Tore",
		"translation":[-200.19114685058595,
		109.6768569946289,
		-93.65568542480469],
		"rotation":[0.4448826313018799,
		0.5428012609481812,
		-0.5758283734321594,
		0.4193660616874695],
		"scale":[1.0,
		1.0,
		1.0],
		"mesh":6
	},
	{
		"name":"Cylindre.2",
		"translation":[-239.78668212890626,
		109.31217956542969,
		-39.884498596191409],
		"rotation":[0.7090976238250732,
		0.005432991776615381,
		-0.026894355192780496,
		0.7045762538909912],
		"scale":[1.0,
		1.0,
		1.0],
		"mesh":7
	},
	{
		"name":"Cube",
		"translation":[15.348484992980957,
		72.44949340820313,
		-74.49800109863281],
		"rotation":[0.0,
		0.0,
		0.0,
		-1.0],
		"scale":[1.0,
		1.0,
		1.0],
		"mesh":8
	}],
	"meshes":[{
		"primitives":[{
			"attributes":{
				"POSITION":1,
				"NORMAL":2,
				"TEXCOORD_0":3
			},
			"indices":0,
			"material":0
		}]
	},
	{
		"primitives":[{
			"attributes":{
				"POSITION":5,
				"NORMAL":6,
				"TEXCOORD_0":7
			},
			"indices":4,
			"material":1
		}]
	},
	{
		"primitives":[{
			"attributes":{
				"POSITION":9,
				"TEXCOORD_0":10
			},
			"indices":8,
			"material":2
		}]
	},
	{
		"primitives":[{
			"attributes":{
				"POSITION":12,
				"TEXCOORD_0":13
			},
			"indices":11,
			"material":3
		}]
	},
	{
		"primitives":[{
			"attributes":{
				"POSITION":15,
				"TEXCOORD_0":16
			},
			"indices":14,
			"material":4
		}]
	},
	{
		"primitives":[{
			"attributes":{
				"POSITION":18,
				"TEXCOORD_0":19
			},
			"indices":17,
			"material":5
		}]
	},
	{
		"primitives":[{
			"attributes":{
				"POSITION":21,
				"TEXCOORD_0":22
			},
			"indices":20,
			"material":6
		}]
	},
	{
		"primitives":[{
			"attributes":{
				"POSITION":24,
				"TEXCOORD_0":25
			},
			"indices":23,
			"material":7
		}]
	},
	{
		"primitives":[{
			"attributes":{
				"POSITION":27,
				"TEXCOORD_0":28
			},
			"indices":26,
			"material":8
		}]
	}],
	"accessors":[{
		"bufferView":0,
		"type":"SCALAR",
		"componentType":5123,
		"count":606,
		"min":[0],
		"byteOffset":0,
		"max":[207]
	},
	{
		"bufferView":1,
		"type":"VEC3",
		"componentType":5126,
		"count":208,
		"min":[-59.85582733154297,
		-187.36000061035157,
		-59.85582733154297],
		"byteOffset":0,
		"max":[59.85582733154297,
		100.0,
		59.85582733154297]
	},
	{
		"bufferView":1,
		"type":"VEC3",
		"componentType":5126,
		"count":208,
		"min":[-0.9960350394248962,
		-1.0,
		-0.9960350394248962],
		"byteOffset":12,
		"max":[0.9960350394248962,
		1.0,
		0.9960350394248962]
	},
	{
		"bufferView":1,
		"type":"VEC2",
		"componentType":5126,
		"count":208,
		"min":[0.0,
		0.0],
		"byteOffset":24,
		"max":[1.0,
		1.0]
	},
	{
		"bufferView":2,
		"type":"SCALAR",
		"componentType":5123,
		"count":606,
		"min":[0],
		"byteOffset":0,
		"max":[207]
	},
	{
		"bufferView":3,
		"type":"VEC3",
		"componentType":5126,
		"count":208,
		"min":[-59.85582733154297,
		-187.36000061035157,
		-59.85582733154297],
		"byteOffset":0,
		"max":[59.85582733154297,
		100.0,
		59.85582733154297]
	},
	{
		"bufferView":3,
		"type":"VEC3",
		"componentType":5126,
		"count":208,
		"min":[-0.9960350394248962,
		-1.0,
		-0.9960350394248962],
		"byteOffset":12,
		"max":[0.9960350394248962,
		1.0,
		0.9960350394248962]
	},
	{
		"bufferView":3,
		"type":"VEC2",
		"componentType":5126,
		"count":208,
		"min":[0.0,
		0.0],
		"byteOffset":24,
		"max":[1.0,
		1.0]
	},
	{
		"bufferView":4,
		"type":"SCALAR",
		"componentType":5123,
		"count":762,
		"min":[0],
		"byteOffset":0,
		"max":[164]
	},
	{
		"bufferView":5,
		"type":"VEC3",
		"componentType":5126,
		"count":165,
		"min":[-23.3485050201416,
		-83.18061065673828,
		-18.42703628540039],
		"byteOffset":0,
		"max":[23.3485050201416,
		146.2993927001953,
		17.713029861450197]
	},
	{
		"bufferView":5,
		"type":"VEC2",
		"componentType":5126,
		"count":165,
		"min":[0.0,
		0.0],
		"byteOffset":12,
		"max":[1.0,
		1.0]
	},
	{
		"bufferView":6,
		"type":"SCALAR",
		"componentType":5123,
		"count":480,
		"min":[0],
		"byteOffset":0,
		"max":[118]
	},
	{
		"bufferView":7,
		"type":"VEC3",
		"componentType":5126,
		"count":119,
		"min":[-5.000312805175781,
		-20.830291748046876,
		-5.000312805175781],
		"byteOffset":0,
		"max":[5.000312805175781,
		20.830291748046876,
		5.000312805175781]
	},
	{
		"bufferView":7,
		"type":"VEC2",
		"componentType":5126,
		"count":119,
		"min":[0.0,
		0.0],
		"byteOffset":12,
		"max":[1.0,
		1.0]
	},
	{
		"bufferView":8,
		"type":"SCALAR",
		"componentType":5123,
		"count":480,
		"min":[0],
		"byteOffset":0,
		"max":[118]
	},
	{
		"bufferView":9,
		"type":"VEC3",
		"componentType":5126,
		"count":119,
		"min":[-5.000312805175781,
		-20.830291748046876,
		-5.000312805175781],
		"byteOffset":0,
		"max":[5.000312805175781,
		20.830291748046876,
		5.000312805175781]
	},
	{
		"bufferView":9,
		"type":"VEC2",
		"componentType":5126,
		"count":119,
		"min":[0.0,
		0.0],
		"byteOffset":12,
		"max":[1.0,
		1.0]
	},
	{
		"bufferView":10,
		"type":"SCALAR",
		"componentType":5123,
		"count":3072,
		"min":[0],
		"byteOffset":0,
		"max":[560]
	},
	{
		"bufferView":11,
		"type":"VEC3",
		"componentType":5126,
		"count":561,
		"min":[-14.646377563476563,
		-0.7575753331184387,
		-14.307557106018067],
		"byteOffset":0,
		"max":[14.646377563476563,
		0.7575753331184387,
		14.307557106018067]
	},
	{
		"bufferView":11,
		"type":"VEC2",
		"componentType":5126,
		"count":561,
		"min":[0.0,
		0.0],
		"byteOffset":12,
		"max":[1.0,
		1.0]
	},
	{
		"bufferView":12,
		"type":"SCALAR",
		"componentType":5123,
		"count":3072,
		"min":[0],
		"byteOffset":0,
		"max":[560]
	},
	{
		"bufferView":13,
		"type":"VEC3",
		"componentType":5126,
		"count":561,
		"min":[-14.646377563476563,
		-0.7575753331184387,
		-14.307557106018067],
		"byteOffset":0,
		"max":[14.646377563476563,
		0.7575753331184387,
		14.307557106018067]
	},
	{
		"bufferView":13,
		"type":"VEC2",
		"componentType":5126,
		"count":561,
		"min":[0.0,
		0.0],
		"byteOffset":12,
		"max":[1.0,
		1.0]
	},
	{
		"bufferView":14,
		"type":"SCALAR",
		"componentType":5123,
		"count":762,
		"min":[0],
		"byteOffset":0,
		"max":[164]
	},
	{
		"bufferView":15,
		"type":"VEC3",
		"componentType":5126,
		"count":165,
		"min":[-23.3485050201416,
		-83.18061065673828,
		-18.42703628540039],
		"byteOffset":0,
		"max":[23.3485050201416,
		146.2993927001953,
		17.713029861450197]
	},
	{
		"bufferView":15,
		"type":"VEC2",
		"componentType":5126,
		"count":165,
		"min":[0.0,
		0.0],
		"byteOffset":12,
		"max":[1.0,
		1.0]
	},
	{
		"bufferView":16,
		"type":"SCALAR",
		"componentType":5123,
		"count":546,
		"min":[0],
		"byteOffset":0,
		"max":[167]
	},
	{
		"bufferView":17,
		"type":"VEC3",
		"componentType":5126,
		"count":168,
		"min":[-251.0279998779297,
		-8.042139053344727,
		-292.0184326171875],
		"byteOffset":0,
		"max":[251.02809143066407,
		154.0611572265625,
		434.26318359375]
	},
	{
		"bufferView":17,
		"type":"VEC2",
		"componentType":5126,
		"count":168,
		"min":[0.0,
		-0.00020811197464354336],
		"byteOffset":12,
		"max":[1.0,
		1.0002167224884034]
	}],
	"bufferViews":[{
		"buffer":0,
		"byteOffset":0,
		"byteLength":1212,
		"target":34963
	},
	{
		"buffer":0,
		"byteOffset":1212,
		"byteLength":6656,
		"target":34962,
		"byteStride":32
	},
	{
		"buffer":1,
		"byteOffset":0,
		"byteLength":1212,
		"target":34963
	},
	{
		"buffer":1,
		"byteOffset":1212,
		"byteLength":6656,
		"target":34962,
		"byteStride":32
	},
	{
		"buffer":2,
		"byteOffset":0,
		"byteLength":1524,
		"target":34963
	},
	{
		"buffer":2,
		"byteOffset":1524,
		"byteLength":3300,
		"target":34962,
		"byteStride":20
	},
	{
		"buffer":3,
		"byteOffset":0,
		"byteLength":960,
		"target":34963
	},
	{
		"buffer":3,
		"byteOffset":960,
		"byteLength":2380,
		"target":34962,
		"byteStride":20
	},
	{
		"buffer":4,
		"byteOffset":0,
		"byteLength":960,
		"target":34963
	},
	{
		"buffer":4,
		"byteOffset":960,
		"byteLength":2380,
		"target":34962,
		"byteStride":20
	},
	{
		"buffer":5,
		"byteOffset":0,
		"byteLength":6144,
		"target":34963
	},
	{
		"buffer":5,
		"byteOffset":6144,
		"byteLength":11220,
		"target":34962,
		"byteStride":20
	},
	{
		"buffer":6,
		"byteOffset":0,
		"byteLength":6144,
		"target":34963
	},
	{
		"buffer":6,
		"byteOffset":6144,
		"byteLength":11220,
		"target":34962,
		"byteStride":20
	},
	{
		"buffer":7,
		"byteOffset":0,
		"byteLength":1524,
		"target":34963
	},
	{
		"buffer":7,
		"byteOffset":1524,
		"byteLength":3300,
		"target":34962,
		"byteStride":20
	},
	{
		"buffer":8,
		"byteOffset":0,
		"byteLength":1092,
		"target":34963
	},
	{
		"buffer":8,
		"byteOffset":1092,
		"byteLength":3360,
		"target":34962,
		"byteStride":20
	}],
	"buffers":[{
		"uri":"data:application/octet-stream;base64,",
		"byteLength":7868
	},
	{
		"uri":"data:application/octet-stream;base64,",
		"byteLength":7868
	},
	{
		"uri":"data:application/octet-stream;base64,",
		"byteLength":4824
	},
	{
		"uri":"data:application/octet-stream;base64,",
		"byteLength":3340
	},
	{
		"uri":"data:application/octet-stream;base64,",
		"byteLength":3340
	},
	{
		"uri":"data:application/octet-stream;base64,",
		"byteLength":17364
	},
	{
		"uri":"data:application/octet-stream;base64,",
		"byteLength":17364
	},
	{
		"uri":"data:application/octet-stream;base64,",
		"byteLength":4824
	},
	{
		"uri":"data:application/octet-stream;base64,",
		"byteLength":4452
	}],
	"materials":[{
		"pbrMetallicRoughness":{
			"baseColorFactor":[1.0,
			1.0,
			1.0,
			1.0],
			"metallicFactor":1.0,
			"roughnessFactor":1.0
		},
		"emissiveFactor":[0.0,
		0.0,
		0.0],
		"alphaMode":"OPAQUE",
		"doubleSided":false,
		"name":""
	},
	{
		"pbrMetallicRoughness":{
			"baseColorFactor":[1.0,
			1.0,
			1.0,
			1.0],
			"metallicFactor":1.0,
			"roughnessFactor":1.0
		},
		"emissiveFactor":[0.0,
		0.0,
		0.0],
		"alphaMode":"OPAQUE",
		"doubleSided":false,
		"name":""
	},
	{
		"pbrMetallicRoughness":{
			"baseColorFactor":[1.0,
			1.0,
			1.0,
			1.0],
			"metallicFactor":1.0,
			"roughnessFactor":1.0
		},
		"emissiveFactor":[0.0,
		0.0,
		0.0],
		"alphaMode":"OPAQUE",
		"doubleSided":false,
		"name":""
	},
	{
		"pbrMetallicRoughness":{
			"baseColorFactor":[1.0,
			1.0,
			1.0,
			1.0],
			"metallicFactor":1.0,
			"roughnessFactor":1.0
		},
		"emissiveFactor":[0.0,
		0.0,
		0.0],
		"alphaMode":"OPAQUE",
		"doubleSided":false,
		"name":""
	},
	{
		"pbrMetallicRoughness":{
			"baseColorFactor":[1.0,
			1.0,
			1.0,
			1.0],
			"metallicFactor":1.0,
			"roughnessFactor":1.0
		},
		"emissiveFactor":[0.0,
		0.0,
		0.0],
		"alphaMode":"OPAQUE",
		"doubleSided":false,
		"name":""
	},
	{
		"pbrMetallicRoughness":{
			"baseColorFactor":[1.0,
			1.0,
			1.0,
			1.0],
			"metallicFactor":1.0,
			"roughnessFactor":1.0
		},
		"emissiveFactor":[0.0,
		0.0,
		0.0],
		"alphaMode":"OPAQUE",
		"doubleSided":false,
		"name":""
	},
	{
		"pbrMetallicRoughness":{
			"baseColorFactor":[1.0,
			1.0,
			1.0,
			1.0],
			"metallicFactor":1.0,
			"roughnessFactor":1.0
		},
		"emissiveFactor":[0.0,
		0.0,
		0.0],
		"alphaMode":"OPAQUE",
		"doubleSided":false,
		"name":""
	},
	{
		"pbrMetallicRoughness":{
			"baseColorFactor":[1.0,
			1.0,
			1.0,
			1.0],
			"metallicFactor":1.0,
			"roughnessFactor":1.0
		},
		"emissiveFactor":[0.0,
		0.0,
		0.0],
		"alphaMode":"OPAQUE",
		"doubleSided":false,
		"name":""
	},
	{
		"pbrMetallicRoughness":{
			"baseColorFactor":[1.0,
			1.0,
			1.0,
			1.0],
			"metallicFactor":1.0,
			"roughnessFactor":1.0
		},
		"emissiveFactor":[0.0,
		0.0,
		0.0],
		"alphaMode":"OPAQUE",
		"doubleSided":false,
		"name":""
	}]
}